<svg preserveAspectRatio="none" overflow="visible" style="display: block;" width="21.5" height="20.3889" viewBox="0 0 21.5 20.3889" fill="none" xmlns="http://www.w3.org/2000/svg">
<g id="Group">
<path id="Vector" d="M5.19444 17.4167C5.19444 18.006 4.96032 18.5713 4.54357 18.988C4.12682 19.4048 3.56159 19.6389 2.97222 19.6389C2.38285 19.6389 1.81762 19.4048 1.40087 18.988C0.984126 18.5713 0.75 18.006 0.75 17.4167C0.75 16.8273 0.984126 16.2621 1.40087 15.8453C1.81762 15.4286 2.38285 15.1944 2.97222 15.1944C3.56159 15.1944 4.12682 15.4286 4.54357 15.8453C4.96032 16.2621 5.19444 16.8273 5.19444 17.4167ZM5.19444 17.4167H8.52778C9.11715 17.4167 9.68238 17.1825 10.0991 16.7658C10.5159 16.349 10.75 15.7838 10.75 15.1944V6.30556C10.75 5.71619 10.9841 5.15095 11.4009 4.73421C11.8176 4.31746 12.3829 4.08333 12.9722 4.08333H20.75" stroke="#555555" stroke-width="1.5" stroke-linecap="round" stroke-linejoin="round"/>
<path id="Vector_2" d="M17.4167 0.75L20.75 4.08333L17.4167 7.41667" stroke="#555555" stroke-width="1.5" stroke-linecap="round" stroke-linejoin="round"/>
</g>
</svg>
